<?xml version="1.0" encoding="UTF-8"?>
<svg xmlns="http://www.w3.org/2000/svg" width="512" height="512" viewBox="0 0 128 128"><g><path d="M45.346,29c0-12.426-6.715-22.5-15-22.5s-15,10.074-15,22.5c0,8.988,3.514,16.742,8.593,20.346a5.928,5.928,0,0,1,2.468,4.983L26.182,64l-.274,11.833h8.877L34.511,64l-.226-9.671a5.933,5.933,0,0,1,2.468-4.983C41.832,45.742,45.346,37.988,45.346,29Z" fill="#ededf9"/><path d="M30.349,121.5h-.006a6.793,6.793,0,0,1-6.79-6.994L24.96,66.911a3,3,0,0,1,3-2.911h4.775a3,3,0,0,1,3,2.911l1.407,47.6A6.792,6.792,0,0,1,30.349,121.5Z" fill="#537980"/><path d="M82.852,6.5A3.114,3.114,0,0,0,80.013,9.67V25.83A3.115,3.115,0,0,1,77.174,29a3,3,0,0,1-3.161-3V9.67A3.115,3.115,0,0,0,71.174,6.5a3,3,0,0,0-3.161,3V25.83A3.115,3.115,0,0,1,65.174,29a3,3,0,0,1-3.161-3V9.67A3.115,3.115,0,0,0,59.174,6.5a3,3,0,0,0-3.161,3V29c0,11.006,3.286,17.6,8.09,20.582a6.049,6.049,0,0,1,2.959,5.251L66.849,64l-.275,11.833h8.878L75.177,64l-.213-9.167a6.047,6.047,0,0,1,2.959-5.251c4.8-2.979,8.09-9.576,8.09-20.582V9.5A3,3,0,0,0,82.852,6.5Z" fill="#ededf9"/><path d="M71.016,121.5H71.01a6.792,6.792,0,0,1-6.79-6.994l1.407-47.595a3,3,0,0,1,3-2.911H73.4a3,3,0,0,1,3,2.911l1.407,47.6A6.793,6.793,0,0,1,71.016,121.5Z" fill="#537980"/><path d="M100.154,84.5V6.5h0a15.734,15.734,0,0,1,12.5,15.4V58.187a4.294,4.294,0,0,1-2.256,3.779h0a4.294,4.294,0,0,0-2.257,3.779v18.5Z" fill="#ededf9"/><path d="M104.154,121.5h0a6.765,6.765,0,0,1-6.762-7L98.755,74.4a3,3,0,0,1,3-2.9h4.8a3,3,0,0,1,3,2.9l1.364,40.106A6.766,6.766,0,0,1,104.154,121.5Z" fill="#537980"/><g><path d="M30.35,4.75C21.113,4.75,13.6,15.628,13.6,29c0,9.344,3.574,17.689,9.331,21.779a4.174,4.174,0,0,1,1.73,3.51l-.228,9.544a4.715,4.715,0,0,0-1.222,3.026l-1.407,47.6a8.541,8.541,0,0,0,8.539,8.8h.007a8.543,8.543,0,0,0,8.539-8.8l-1.408-47.6a4.727,4.727,0,0,0-4.748-4.609H27.976l.184-7.884a7.668,7.668,0,0,0-3.206-6.443C20.183,44.533,17.1,37.1,17.1,29c0-11.441,5.944-20.75,13.25-20.75S43.6,17.559,43.6,29c0,8.1-3.087,15.529-7.86,18.921a7.633,7.633,0,0,0-3.2,6.449l.045,1.964a1.75,1.75,0,0,0,3.5-.08l-.046-1.968a4.139,4.139,0,0,1,1.725-3.509C43.522,46.685,47.1,38.34,47.1,29,47.1,15.628,39.586,4.75,30.35,4.75Zm3.633,62.213,1.408,47.6a5.044,5.044,0,0,1-5.041,5.192h-.007a5.044,5.044,0,0,1-5.041-5.192l1.407-47.6a1.244,1.244,0,0,1,1.25-1.213h4.774A1.244,1.244,0,0,1,33.983,66.963Z" fill="#102a3f"/><path d="M22.158,17.405a23.811,23.811,0,0,0-2.022,6.022,1.75,1.75,0,1,0,3.433.683,20.3,20.3,0,0,1,1.718-5.138,1.75,1.75,0,1,0-3.129-1.567Z" fill="#102a3f"/><path d="M82.753,4.752A4.85,4.85,0,0,0,78.26,9.67V25.83a1.387,1.387,0,0,1-1.181,1.422A1.252,1.252,0,0,1,75.76,26V9.67a4.85,4.85,0,0,0-4.5-4.918,4.717,4.717,0,0,0-3.519,1.3A4.775,4.775,0,0,0,66.26,9.5V25.83a1.387,1.387,0,0,1-1.181,1.422A1.252,1.252,0,0,1,63.76,26V9.67a4.85,4.85,0,0,0-4.5-4.918,4.717,4.717,0,0,0-3.519,1.3A4.775,4.775,0,0,0,54.26,9.5V29c0,13.663,4.848,19.542,8.918,22.068A4.281,4.281,0,0,1,65.31,54.79L65.1,63.83a4.716,4.716,0,0,0-1.225,3.029l-1.407,47.6a8.546,8.546,0,1,0,17.085,0l-.707-23.9a1.719,1.719,0,0,0-1.8-1.7,1.749,1.749,0,0,0-1.7,1.8l.707,23.9a5.047,5.047,0,1,1-10.089,0l1.407-47.6a1.244,1.244,0,0,1,1.25-1.213H73.4a1.244,1.244,0,0,1,1.25,1.213l.4,13.382a1.75,1.75,0,0,0,3.5-.1l-.4-13.382a4.713,4.713,0,0,0-1.225-3.03L76.71,54.79a4.3,4.3,0,0,1,2.132-3.722C82.91,48.547,87.76,42.673,87.76,29V9.5a4.775,4.775,0,0,0-1.482-3.449A4.7,4.7,0,0,0,82.753,4.752ZM84.26,29c0,9.547-2.511,16.149-7.266,19.1a7.764,7.764,0,0,0-3.783,6.777l.176,7.378H68.643l.167-7.379a7.75,7.75,0,0,0-3.788-6.778C60.271,45.144,57.76,38.541,57.76,29V9.5a1.251,1.251,0,0,1,1.313-1.252A1.387,1.387,0,0,1,60.26,9.67V26a4.755,4.755,0,0,0,5.007,4.748A4.85,4.85,0,0,0,69.76,25.83V9.5a1.242,1.242,0,0,1,.391-.911,1.257,1.257,0,0,1,.922-.341A1.387,1.387,0,0,1,72.26,9.67V26a4.755,4.755,0,0,0,5.007,4.748A4.85,4.85,0,0,0,81.76,25.83V9.67a1.388,1.388,0,0,1,1.18-1.422,1.269,1.269,0,0,1,.928.341,1.243,1.243,0,0,1,.392.911Z" fill="#102a3f"/><path d="M110.251,64.45a2.513,2.513,0,0,1,.98-.94,6.034,6.034,0,0,0,3.169-5.32V21.9A17.485,17.485,0,0,0,100.507,4.787,1.75,1.75,0,0,0,98.4,6.5V30.466a1.75,1.75,0,1,0,3.5,0V8.83a13.993,13.993,0,0,1,9,13.07V58.19a2.534,2.534,0,0,1-1.317,2.233,6.055,6.055,0,0,0-3.193,5.327v4H101.9V47.407a1.75,1.75,0,0,0-3.5,0V71.135a4.729,4.729,0,0,0-1.394,3.2l-1.363,40.106a8.516,8.516,0,1,0,17.022,0L111.3,74.339a4.733,4.733,0,0,0-1.411-3.225V65.75A2.533,2.533,0,0,1,110.251,64.45Zm-2.49,53.77a5.016,5.016,0,0,1-8.62-3.656L100.5,74.458a1.246,1.246,0,0,1,1.25-1.208h4.8a1.245,1.245,0,0,1,1.249,1.208l1.364,40.106A4.975,4.975,0,0,1,107.761,118.22Z" fill="#102a3f"/><path d="M100.15,43.51a1.749,1.749,0,0,0,1.75-1.75V36.819a1.75,1.75,0,1,0-3.5,0V41.76A1.75,1.75,0,0,0,100.15,43.51Z" fill="#102a3f"/></g></g></svg>
