<svg height="512" viewBox="0 0 128 128" width="512" xmlns="http://www.w3.org/2000/svg"><g><g><path d="m9.5 23.039h30v30h-30z" fill="#f5502f"/><path d="m9.5 23.039h30v6h-30z" fill="#f9d42f"/><path d="m108.427 93.335c0-30.114-10.927-47.489-10.927-47.489h-8.59l2.19 17.479a18.589 18.589 0 0 1 -2 10.965 18.59 18.59 0 0 1 -16.449 9.931h-7.913a6 6 0 0 1 -4.091-1.611 9.616 9.616 0 0 1 -1.728-11.915l.1-.169a10.692 10.692 0 0 0 1.481-5.426 6 6 0 0 0 -6-6h-20.25a24 24 0 0 0 -24 24v10.235z" fill="#f5502f"/><path d="m105.88 49.726-20.047-2.421v-8.167l19.447-3.792z" fill="#f9d42f"/><path d="m106.808 51.039a3 3 0 0 1 -3-3v-12a3 3 0 0 1 3-3 3 3 0 0 1 3 3v12a3 3 0 0 1 -3 3z" fill="#fb9401"/><circle cx="85.244" cy="43.24" fill="#537980" r="4.5"/><circle cx="101.751" cy="98.125" fill="#537980" r="14.529"/><path d="m101.751 106.654a8.529 8.529 0 1 1 8.529-8.528 8.538 8.538 0 0 1 -8.529 8.528z" fill="#ededf9"/><path d="m85.014 99.346a2.98 2.98 0 0 1 -2.97-3.432 20 20 0 0 1 39.414 0 2.98 2.98 0 0 1 -2.97 3.432z" fill="#f9d42f"/><circle cx="28.458" cy="98.125" fill="#537980" r="14.529"/><path d="m28.458 106.654a8.529 8.529 0 1 1 8.529-8.528 8.538 8.538 0 0 1 -8.529 8.528z" fill="#ededf9"/><path d="m49.421 99.346h-39.921a3 3 0 0 1 -2.9-3.746 29.683 29.683 0 0 1 26.389-22.18 18.588 18.588 0 0 1 19.459 23.203l-.124.478a3 3 0 0 1 -2.903 2.245z" fill="#f9d42f"/><path d="m59 62.039h-34.917a4.5 4.5 0 0 1 -4.5-4.5 4.5 4.5 0 0 1 4.5-4.5h34.917a4.5 4.5 0 0 1 4.5 4.5 4.5 4.5 0 0 1 -4.5 4.5z" fill="#f9d42f"/><path d="m77.543 27.346a3 3 0 0 1 -3-3v-6a3 3 0 0 1 3-3 3 3 0 0 1 3 3v6a3 3 0 0 1 -3 3z" fill="#ededf9"/></g><g fill="#102a3f"><path d="m103.622 60.27a1.75 1.75 0 0 0 -1.189 2.17c.377 1.288.734 2.613 1.064 3.941a1.75 1.75 0 0 0 3.4-.842c-.341-1.375-.712-2.748-1.1-4.081a1.753 1.753 0 0 0 -2.175-1.188z"/><path d="m123.182 95.616a21.678 21.678 0 0 0 -13.867-16.676c-.3-2.48-.659-4.952-1.109-7.358a1.75 1.75 0 0 0 -3.441.645c.351 1.872.635 3.79.888 5.717a21.941 21.941 0 0 0 -3.9-.348 21.688 21.688 0 0 0 -20.319 13.984h-26.634a20 20 0 0 0 -1.839-8.093 1.75 1.75 0 0 0 -3.179 1.463 16.59 16.59 0 0 1 .971 11.234l-.124.476a1.25 1.25 0 0 1 -1.21.936h-39.919a1.249 1.249 0 0 1 -1.209-1.562 27.939 27.939 0 0 1 24.832-20.873 16.594 16.594 0 0 1 10.76 2.822 1.75 1.75 0 0 0 1.966-2.9 20.064 20.064 0 0 0 -13-3.414 31.409 31.409 0 0 0 -20.809 10.264 22.227 22.227 0 0 1 11.26-18.199c.256.032 35.233.054 35.233.054a4.262 4.262 0 0 1 .217 1.312 8.97 8.97 0 0 1 -1.238 4.542l-.1.167a11.362 11.362 0 0 0 2.039 14.079 7.706 7.706 0 0 0 5.289 2.082h7.91a20.243 20.243 0 0 0 13.05-4.738 20.053 20.053 0 0 0 4.946-6.127 20.258 20.258 0 0 0 2.188-12l-1.678-13.395 6.825.829c.807 1.709 1.589 3.553 2.325 5.512a1.75 1.75 0 0 0 3.276-1.233q-.739-1.965-1.534-3.786l1.225.149a4.732 4.732 0 0 0 8.285-3.143v-12a4.745 4.745 0 0 0 -9.084-1.925l-15.484 3.025v-9.788a7.8 7.8 0 0 0 -4.7-7.121v-1.883a4.75 4.75 0 0 0 -9.5 0v6a4.747 4.747 0 0 0 9.494.065 4.253 4.253 0 0 1 1.2 2.939v9.895a6.248 6.248 0 1 0 3.586 11.97l.5.061 1.789 14.26a16.772 16.772 0 0 1 -1.814 9.942 16.587 16.587 0 0 1 -4.091 5.069 17.158 17.158 0 0 1 -2.1 1.5 16.928 16.928 0 0 1 -8.704 2.423h-7.91a4.217 4.217 0 0 1 -2.9-1.141 7.887 7.887 0 0 1 -2.5-5.759 7.8 7.8 0 0 1 1.088-3.981l.1-.172a12.475 12.475 0 0 0 1.722-6.317 7.608 7.608 0 0 0 -.3-2.057 6.249 6.249 0 0 0 -2.95-11.755h-17.75v-6.094a1.75 1.75 0 0 0 -3.5 0v6.094h-26.5v-20.5h26.5v4.241a1.75 1.75 0 0 0 3.5 0v-11.991a1.75 1.75 0 0 0 -1.75-1.75h-30a1.75 1.75 0 0 0 -1.75 1.75v30a1.75 1.75 0 0 0 1.75 1.75h8.979a6.213 6.213 0 0 0 1.147 7.125 25.715 25.715 0 0 0 -11.126 21.187v3.578a31.368 31.368 0 0 0 -3.6 8.482 4.751 4.751 0 0 0 4.6 5.94h2.961a16.271 16.271 0 0 0 32 0h4.959a4.751 4.751 0 0 0 4.6-3.556l.124-.476c.172-.66.3-1.322.406-1.984h25.887c-.035.18-.086.354-.117.536a4.631 4.631 0 0 0 1.032 3.775 4.776 4.776 0 0 0 3.662 1.7h.738a16.276 16.276 0 0 0 32 0h.732a4.78 4.78 0 0 0 3.663-1.706 4.626 4.626 0 0 0 1.035-3.773zm-45.639-70.016a1.252 1.252 0 0 1 -1.25-1.25v-6a1.25 1.25 0 0 1 2.5 0v6a1.251 1.251 0 0 1 -1.25 1.25zm13.233 20.538a6.2 6.2 0 0 0 -.196-6.138l11.478-2.243v9.746zm14.782-10.1a1.25 1.25 0 0 1 2.5 0v12a1.25 1.25 0 0 1 -2.5 0zm-23.064 7.2a2.75 2.75 0 1 1 2.75 2.75 2.753 2.753 0 0 1 -2.75-2.748zm-71.244-18.45h26.5v2.5h-26.5zm47.75 30a2.75 2.75 0 0 1 0 5.5h-34.917a2.75 2.75 0 0 1 0-5.5zm-24.456 46.312a6.767 6.767 0 0 1 -12.168 0zm-6.084 9.8a12.835 12.835 0 0 1 -12.41-9.8h2.58a10.267 10.267 0 0 0 19.66 0h2.58a12.835 12.835 0 0 1 -12.41 9.8zm73.29 0a12.835 12.835 0 0 1 -12.41-9.8h2.58a10.267 10.267 0 0 0 19.66 0h2.587a12.852 12.852 0 0 1 -12.417 9.8zm-6.084-9.8h12.168a6.767 6.767 0 0 1 -12.168 0zm23.807-3.96a1.286 1.286 0 0 1 -.985.46h-33.474a1.285 1.285 0 0 1 -.985-.459 1.132 1.132 0 0 1 -.26-.925 18.254 18.254 0 0 1 35.964 0 1.127 1.127 0 0 1 -.26.92z"/><path d="m23.181 80.669a25.563 25.563 0 0 0 -4.094 2.776 1.751 1.751 0 0 0 2.236 2.694 22.045 22.045 0 0 1 3.532-2.4 1.749 1.749 0 1 0 -1.674-3.072z"/></g></g></svg>